<svg width="39" height="42" fill="none" xmlns="http://www.w3.org/2000/svg"><path d="M15.493 23.122v-1.285c0-.362.281-.643.643-.643H30.28c.361 0 .643.281.643.643v1.285a.635.635 0 0 1-.643.643H16.136a.635.635 0 0 1-.643-.643ZM16.136 26.337H30.28c.361 0 .643.281.643.643v1.285a.635.635 0 0 1-.643.643H16.136a.635.635 0 0 1-.643-.643V26.98c0-.362.281-.643.643-.643ZM16.136 31.48H30.28c.361 0 .643.28.643.642v1.286a.635.635 0 0 1-.643.643H16.136a.635.635 0 0 1-.643-.643v-1.286c0-.361.281-.642.643-.642Z" fill="#fff"/><path fill-rule="evenodd" clip-rule="evenodd" d="M7.779 15.065a7.415 7.415 0 1 1 7.173-9.3h12.755c1.065 0 2.552.623 3.295 1.366L37.27 13.4c.743.744 1.366 2.23 1.366 3.295v23.143a1.93 1.93 0 0 1-1.928 1.928h-27a1.93 1.93 0 0 1-1.93-1.928V15.065Zm2.571-.458a7.421 7.421 0 0 0 4.813-6.27h10.616v8.357a1.93 1.93 0 0 0 1.928 1.928h8.358v20.572H10.35V14.607Zm18.824-5.668c-.14-.14-.482-.321-.824-.442v7.554h7.554c-.12-.341-.301-.683-.442-.824L29.174 8.94ZM8.779 8.65h4v-2h-4v-4h-2v4h-4v2h4v4h2v-4Z" fill="#fff"/></svg>