<svg width="39" height="27" fill="none" xmlns="http://www.w3.org/2000/svg"><path d="M15.429 18.786v-1.929H18v-5.786h-.04c-.322.503-.623.724-1.105 1.146l-1.547-1.608 2.973-2.752h2.29v9h2.572v1.929h-7.714Zm10.285-5.143c0-3.656-2.21-8.357-6.428-8.357-4.219 0-6.429 4.7-6.429 8.357 0 3.656 2.21 8.357 6.429 8.357 4.218 0 6.428-4.7 6.428-8.357ZM36 18.786a5.153 5.153 0 0 0-5.143 5.143H7.714a5.153 5.153 0 0 0-5.143-5.143V8.5a5.153 5.153 0 0 0 5.143-5.143h23.143A5.153 5.153 0 0 0 36 8.5v10.286ZM38.571 2.07c0-.703-.582-1.285-1.285-1.285h-36C.583.786 0 1.368 0 2.07v23.143c0 .703.583 1.286 1.286 1.286h36c.703 0 1.285-.583 1.285-1.286V2.071Z" fill="#fff"/></svg>