<svg width="37" height="30" fill="none" xmlns="http://www.w3.org/2000/svg"><path d="M33.929 25.857a.661.661 0 0 1-.643.643H3.714a.661.661 0 0 1-.643-.643V10.43c.422.482.884.924 1.387 1.325 2.872 2.21 5.765 4.46 8.558 6.79 1.506 1.266 3.375 2.813 5.464 2.813h.04c2.09 0 3.958-1.547 5.464-2.812 2.793-2.33 5.686-4.58 8.558-6.79.503-.402.965-.844 1.387-1.326v15.428Zm0-21.114c0 1.708-1.648 3.938-2.954 4.962-2.692 2.11-5.384 4.24-8.055 6.369-1.065.863-2.994 2.712-4.4 2.712h-.04c-1.406 0-3.335-1.849-4.4-2.712-2.671-2.13-5.363-4.26-8.055-6.369C4.217 8.28 3.07 6.29 3.07 4c0-.342.302-.643.643-.643h29.572c.763 0 .643.884.643 1.386ZM36.5 4A3.224 3.224 0 0 0 33.286.786H3.714A3.224 3.224 0 0 0 .5 4v21.857a3.224 3.224 0 0 0 3.214 3.214h29.572a3.224 3.224 0 0 0 3.214-3.214V4Z" fill="#fff"/></svg>