<svg width="21" height="20" fill="none" xmlns="http://www.w3.org/2000/svg"><path d="M16.912 13.456c.06.388-.067.552-.195.552s-.314-.158-.521-.47c-.207-.313-.278-.661-.178-.84a.287.287 0 0 1 .17-.126.298.298 0 0 1 .213.022c.341.124.475.63.51.862Zm-1.888.85c.41.335.535.733.318 1.013a.687.687 0 0 1-.55.238.998.998 0 0 1-.626-.218c-.37-.314-.48-.825-.237-1.114a.534.534 0 0 1 .434-.176c.245.008.479.099.661.257Zm-.684 3.23c1.762 0 3.674.585 5.791 2.4.211.18.493-.045.309-.27-2.08-2.54-4.008-3.025-5.922-3.433-2.346-.502-3.554-1.78-4.4-3.182-.166-.279-.242-.23-.257.13a7.655 7.655 0 0 0 .124 1.59H9.7a6.226 6.226 0 0 1-3.377-.992 5.927 5.927 0 0 1-2.239-2.639 5.701 5.701 0 0 1-.345-3.397A5.823 5.823 0 0 1 5.4 4.733a6.145 6.145 0 0 1 3.112-1.61 6.27 6.27 0 0 1 3.512.335 6.04 6.04 0 0 1 2.728 2.166 5.744 5.744 0 0 1 .986 3.95 9.38 9.38 0 0 0-1.93-.035c-.232.02-.198.13-.025.154 2.004.35 3.391 1.55 3.706 3.74a.053.053 0 0 0 .014.03.055.055 0 0 0 .062.014.055.055 0 0 0 .026-.021 8.658 8.658 0 0 0 1.24-5.608 8.78 8.78 0 0 0-2.554-5.176 9.31 9.31 0 0 0-5.29-2.59A9.46 9.46 0 0 0 5.165 1.15a9.001 9.001 0 0 0-3.94 4.286 8.625 8.625 0 0 0-.417 5.72 8.884 8.884 0 0 0 3.28 4.779 9.399 9.399 0 0 0 5.612 1.849c1.343.004 2.68-.25 4.641-.25v.002Z" fill="#3E9CDC"/></svg>