<svg width="16" height="13" fill="none" xmlns="http://www.w3.org/2000/svg"><path d="M14.75 10.85a.275.275 0 0 1-.268.267H2.162a.275.275 0 0 1-.269-.268V4.421c.176.2.369.385.578.552 1.197.92 2.402 1.858 3.566 2.83.627.527 1.406 1.171 2.276 1.171h.017c.87 0 1.65-.644 2.277-1.172a114.812 114.812 0 0 1 3.566-2.829c.209-.167.402-.352.577-.552v6.428Zm0-8.798c0 .711-.686 1.64-1.23 2.067a517.902 517.902 0 0 0-3.357 2.654c-.443.36-1.247 1.13-1.833 1.13h-.017c-.586 0-1.39-.77-1.833-1.13a518.446 518.446 0 0 0-3.356-2.654c-.754-.594-1.23-1.423-1.23-2.377 0-.142.125-.268.267-.268h12.321c.319 0 .268.368.268.578Zm1.072-.31c0-.737-.603-1.34-1.34-1.34H2.162c-.738 0-1.34.603-1.34 1.34v9.107c0 .737.602 1.34 1.34 1.34h12.32c.737 0 1.34-.603 1.34-1.34V1.742Z" fill="#3E9CDC"/></svg>