<svg width="32" height="31" fill="none" xmlns="http://www.w3.org/2000/svg"><path d="M26.286 23.214a2.59 2.59 0 0 1-2.572 2.572 2.59 2.59 0 0 1-2.571-2.572 2.59 2.59 0 0 1 2.571-2.571 2.59 2.59 0 0 1 2.572 2.571ZM10.857 7.786a2.59 2.59 0 0 1-2.571 2.571 2.59 2.59 0 0 1-2.572-2.571 2.59 2.59 0 0 1 2.572-2.572 2.59 2.59 0 0 1 2.571 2.572ZM31.43 23.214a7.716 7.716 0 0 0-7.715-7.714A7.716 7.716 0 0 0 16 23.214a7.716 7.716 0 0 0 7.714 7.715 7.716 7.716 0 0 0 7.715-7.715ZM29.5 1.357c0-.703-.583-1.286-1.286-1.286H25c-.402 0-.784.201-1.025.523L2.761 28.879c-.16.221-.261.483-.261.764 0 .703.583 1.286 1.286 1.286H7c.402 0 .783-.201 1.025-.523L29.239 2.121c.16-.221.261-.483.261-.764ZM16 7.786A7.716 7.716 0 0 0 8.286.07 7.716 7.716 0 0 0 .57 7.786 7.716 7.716 0 0 0 8.286 15.5 7.716 7.716 0 0 0 16 7.786Z" fill="#fff"/></svg>